<mxfile host="app.diagrams.net" modified="2023-05-05T15:56:57.850Z" agent="Mozilla/5.0 (Windows NT 10.0; Win64; x64) AppleWebKit/537.36 (KHTML, like Gecko) Chrome/112.0.0.0 Safari/537.36" etag="kVnNutiSwiM_V034E4Dx" version="21.2.7" type="device">
  <diagram name="第 1 页" id="sslZPtSE_ZiAEW3_LEf5">
    <mxGraphModel dx="1050" dy="541" grid="1" gridSize="10" guides="1" tooltips="1" connect="1" arrows="1" fold="1" page="1" pageScale="1" pageWidth="827" pageHeight="1169" math="0" shadow="0">
      <root>
        <mxCell id="0" />
        <mxCell id="1" parent="0" />
        <mxCell id="4R87RLHIif0TYubzOAR7-1" value="" style="rounded=1;whiteSpace=wrap;html=1;fillColor=#dae8fc;strokeColor=#6c8ebf;" vertex="1" parent="1">
          <mxGeometry x="140" y="140" width="130" height="380" as="geometry" />
        </mxCell>
        <mxCell id="4R87RLHIif0TYubzOAR7-2" value="基础数据" style="rounded=0;whiteSpace=wrap;html=1;fillColor=#dae8fc;strokeColor=#6c8ebf;" vertex="1" parent="1">
          <mxGeometry x="140" y="60" width="130" height="60" as="geometry" />
        </mxCell>
        <mxCell id="4R87RLHIif0TYubzOAR7-3" value="库存信息" style="rounded=1;whiteSpace=wrap;html=1;" vertex="1" parent="1">
          <mxGeometry x="145" y="160" width="120" height="60" as="geometry" />
        </mxCell>
        <mxCell id="4R87RLHIif0TYubzOAR7-4" value="工作人员" style="rounded=1;whiteSpace=wrap;html=1;" vertex="1" parent="1">
          <mxGeometry x="145" y="240" width="120" height="60" as="geometry" />
        </mxCell>
        <mxCell id="4R87RLHIif0TYubzOAR7-6" value="用户" style="rounded=1;whiteSpace=wrap;html=1;" vertex="1" parent="1">
          <mxGeometry x="145" y="320" width="120" height="60" as="geometry" />
        </mxCell>
        <mxCell id="4R87RLHIif0TYubzOAR7-7" value="&lt;font style=&quot;font-size: 17px;&quot;&gt;……&lt;/font&gt;" style="rounded=1;whiteSpace=wrap;html=1;" vertex="1" parent="1">
          <mxGeometry x="145" y="400" width="120" height="60" as="geometry" />
        </mxCell>
        <mxCell id="4R87RLHIif0TYubzOAR7-9" value="" style="rounded=1;whiteSpace=wrap;html=1;fillColor=#fff2cc;strokeColor=#d6b656;" vertex="1" parent="1">
          <mxGeometry x="290" y="140" width="480" height="380" as="geometry" />
        </mxCell>
        <mxCell id="4R87RLHIif0TYubzOAR7-10" value="&lt;br&gt;&lt;br&gt;&lt;br&gt;&lt;br&gt;&lt;br&gt;&lt;br&gt;登录中心" style="rounded=1;whiteSpace=wrap;html=1;fillColor=#f5f5f5;strokeColor=#666666;fontColor=#333333;" vertex="1" parent="1">
          <mxGeometry x="290" y="360" width="180" height="160" as="geometry" />
        </mxCell>
        <mxCell id="4R87RLHIif0TYubzOAR7-11" value="token" style="ellipse;whiteSpace=wrap;html=1;" vertex="1" parent="1">
          <mxGeometry x="290" y="370" width="80" height="80" as="geometry" />
        </mxCell>
        <mxCell id="4R87RLHIif0TYubzOAR7-12" value="user_&lt;br&gt;basic_&lt;br&gt;info" style="ellipse;whiteSpace=wrap;html=1;" vertex="1" parent="1">
          <mxGeometry x="384" y="370" width="86" height="80" as="geometry" />
        </mxCell>
        <mxCell id="4R87RLHIif0TYubzOAR7-14" value="&lt;br&gt;&lt;br&gt;&lt;br&gt;&lt;br&gt;&lt;br&gt;&lt;br&gt;用户中心" style="rounded=1;whiteSpace=wrap;html=1;fillColor=#f5f5f5;strokeColor=#666666;fontColor=#333333;" vertex="1" parent="1">
          <mxGeometry x="590" y="360" width="180" height="160" as="geometry" />
        </mxCell>
        <mxCell id="4R87RLHIif0TYubzOAR7-15" value="wallet" style="ellipse;whiteSpace=wrap;html=1;" vertex="1" parent="1">
          <mxGeometry x="590" y="370" width="80" height="80" as="geometry" />
        </mxCell>
        <mxCell id="4R87RLHIif0TYubzOAR7-16" value="home" style="ellipse;whiteSpace=wrap;html=1;" vertex="1" parent="1">
          <mxGeometry x="690" y="370" width="80" height="80" as="geometry" />
        </mxCell>
        <mxCell id="4R87RLHIif0TYubzOAR7-17" value="……" style="ellipse;whiteSpace=wrap;html=1;aspect=fixed;" vertex="1" parent="1">
          <mxGeometry x="300" y="460" width="50" height="50" as="geometry" />
        </mxCell>
        <mxCell id="4R87RLHIif0TYubzOAR7-18" value="……" style="ellipse;whiteSpace=wrap;html=1;aspect=fixed;" vertex="1" parent="1">
          <mxGeometry x="605" y="460" width="50" height="50" as="geometry" />
        </mxCell>
        <mxCell id="4R87RLHIif0TYubzOAR7-19" value="&lt;br&gt;&lt;br&gt;&lt;br&gt;&lt;br&gt;&lt;br&gt;&lt;br&gt;销售服务" style="rounded=1;whiteSpace=wrap;html=1;fillColor=#f5f5f5;strokeColor=#666666;fontColor=#333333;" vertex="1" parent="1">
          <mxGeometry x="290" y="140" width="180" height="160" as="geometry" />
        </mxCell>
        <mxCell id="4R87RLHIif0TYubzOAR7-20" value="……" style="ellipse;whiteSpace=wrap;html=1;aspect=fixed;" vertex="1" parent="1">
          <mxGeometry x="300" y="240" width="50" height="50" as="geometry" />
        </mxCell>
        <mxCell id="4R87RLHIif0TYubzOAR7-21" value="item" style="ellipse;whiteSpace=wrap;html=1;" vertex="1" parent="1">
          <mxGeometry x="290" y="150" width="80" height="80" as="geometry" />
        </mxCell>
        <mxCell id="4R87RLHIif0TYubzOAR7-22" value="record" style="ellipse;whiteSpace=wrap;html=1;" vertex="1" parent="1">
          <mxGeometry x="384" y="150" width="86" height="80" as="geometry" />
        </mxCell>
        <mxCell id="4R87RLHIif0TYubzOAR7-23" value="&lt;br&gt;&lt;br&gt;&lt;br&gt;&lt;br&gt;&lt;br&gt;&lt;br&gt;评论服务" style="rounded=1;whiteSpace=wrap;html=1;fillColor=#f5f5f5;strokeColor=#666666;fontColor=#333333;" vertex="1" parent="1">
          <mxGeometry x="590" y="140" width="180" height="160" as="geometry" />
        </mxCell>
        <mxCell id="4R87RLHIif0TYubzOAR7-24" value="……" style="ellipse;whiteSpace=wrap;html=1;aspect=fixed;" vertex="1" parent="1">
          <mxGeometry x="605" y="240" width="50" height="50" as="geometry" />
        </mxCell>
        <mxCell id="4R87RLHIif0TYubzOAR7-25" value="等等" style="rounded=1;whiteSpace=wrap;html=1;fillColor=#f5f5f5;fontColor=#333333;strokeColor=#666666;" vertex="1" parent="1">
          <mxGeometry x="470" y="300" width="120" height="60" as="geometry" />
        </mxCell>
        <mxCell id="4R87RLHIif0TYubzOAR7-26" value="comment" style="ellipse;whiteSpace=wrap;html=1;" vertex="1" parent="1">
          <mxGeometry x="590" y="150" width="80" height="80" as="geometry" />
        </mxCell>
        <mxCell id="4R87RLHIif0TYubzOAR7-27" value="community" style="ellipse;whiteSpace=wrap;html=1;" vertex="1" parent="1">
          <mxGeometry x="690" y="150" width="80" height="80" as="geometry" />
        </mxCell>
        <mxCell id="4R87RLHIif0TYubzOAR7-28" value="应用层" style="rounded=0;whiteSpace=wrap;html=1;fillColor=#fff2cc;strokeColor=#d6b656;" vertex="1" parent="1">
          <mxGeometry x="290" y="60" width="480" height="60" as="geometry" />
        </mxCell>
      </root>
    </mxGraphModel>
  </diagram>
</mxfile>
